<svg width="25" height="23" viewBox="0 0 25 23" fill="none" xmlns="http://www.w3.org/2000/svg">
<path d="M20.8526 9.04835C20.8116 5.5197 23.9276 3.80029 24.0779 3.7233C22.3149 1.31099 19.5816 0.977369 18.6249 0.951706C16.3289 0.72074 14.1012 2.23485 12.9396 2.23485C11.7506 2.23485 9.94656 0.964537 8.00589 1.00303C5.50488 1.04153 3.16787 2.40166 1.89687 4.50602C-0.740804 8.80456 1.2272 15.1176 3.75554 18.595C5.02655 20.3015 6.50255 22.2006 8.44322 22.1236C10.3429 22.0466 11.0536 20.9944 13.3359 20.9944C15.6046 20.9944 16.2606 22.1236 18.2423 22.0851C20.2786 22.0595 21.5633 20.3785 22.7796 18.6591C24.2419 16.7087 24.8296 14.784 24.8569 14.6942C24.7886 14.6814 20.8936 13.2827 20.8526 9.04835Z" fill="white"/>
</svg>
